<svg width="32" height="32" viewBox="0 0 32 32" fill="none" xmlns="http://www.w3.org/2000/svg">
<g id="Layer x0020 1">
<g id="1421344023328">
<path id="Vector" d="M31.5177 19.8705C29.3808 28.442 20.6992 33.6584 12.1267 31.521C3.55778 29.3841 -1.65868 20.702 0.479176 12.1312C2.61515 3.5587 11.2967 -1.65814 19.8666 0.478774C28.4385 2.61569 33.6546 11.2987 31.5175 19.8706L31.5176 19.8705H31.5177Z" fill="#F7931A"/>
<path id="Vector_2" d="M23.0759 13.697C23.3943 11.5678 21.7733 10.4232 19.5566 9.65968L20.2757 6.77542L18.52 6.33793L17.8199 9.14625C17.3584 9.03113 16.8843 8.92266 16.4132 8.81512L17.1183 5.98827L15.3637 5.55078L14.6442 8.4341C14.2622 8.34714 13.8871 8.26119 13.5231 8.17062L13.5251 8.16155L11.1039 7.55694L10.6369 9.43217C10.6369 9.43217 11.9395 9.73076 11.9121 9.74914C12.623 9.92659 12.7516 10.3972 12.7302 10.7703L11.9111 14.0561C11.9601 14.0686 12.0236 14.0866 12.0936 14.1147C12.0351 14.1002 11.9727 14.0843 11.9081 14.0688L10.7599 18.6718C10.673 18.8878 10.4525 19.212 9.9554 19.0889C9.973 19.1144 8.67931 18.7704 8.67931 18.7704L7.80762 20.7802L10.0924 21.3498C10.5175 21.4563 10.934 21.5679 11.3442 21.6727L10.6177 24.5901L12.3714 25.0276L13.0909 22.1412C13.57 22.2713 14.0349 22.3912 14.4901 22.5043L13.773 25.3771L15.5288 25.8146L16.2553 22.9027C19.2492 23.4693 21.5003 23.2409 22.4479 20.5329C23.2114 18.3526 22.4099 17.0951 20.8348 16.275C21.982 16.0104 22.8461 15.2559 23.0765 13.6972L23.076 13.6969L23.0759 13.697ZM19.0644 19.3221C18.5218 21.5023 14.851 20.3238 13.6608 20.0282L14.625 16.1633C15.815 16.4604 19.6315 17.0483 19.0645 19.3221H19.0644ZM19.6074 13.6654C19.1125 15.6486 16.0572 14.641 15.066 14.394L15.9402 10.8887C16.9313 11.1357 20.123 11.5969 19.6076 13.6654H19.6074Z" fill="white"/>
</g>
</g>
</svg>
