<svg width="33" height="32" viewBox="0 0 33 32" fill="none" xmlns="http://www.w3.org/2000/svg">
<g id="USDT">
<g id="usdt">
<g id="Group">
<path id="Shape" d="M32.8374 15.9204C32.8374 24.7132 25.7098 31.8408 16.917 31.8408C8.12446 31.8408 0.996582 24.7132 0.996582 15.9204C0.996582 7.12772 8.12446 0 16.917 0C25.7098 0 32.8374 7.12772 32.8374 15.9204Z" fill="#1BA27A"/>
<path id="Shape_2" d="M24.389 8.02783H9.31396V11.6672H15.0318V17.0165H18.6712V11.6672H24.389V8.02783Z" fill="white"/>
<path id="Shape_3" d="M16.8859 17.5866C12.156 17.5866 8.32122 16.838 8.32122 15.9144C8.32122 14.9911 12.1558 14.2423 16.8859 14.2423C21.6159 14.2423 25.4505 14.9911 25.4505 15.9144C25.4505 16.838 21.6159 17.5866 16.8859 17.5866ZM26.5026 16.1932C26.5026 15.0024 22.1971 14.0371 16.8859 14.0371C11.5749 14.0371 7.26904 15.0024 7.26904 16.1932C7.26904 17.2419 10.6077 18.1156 15.0318 18.3092V25.9882H18.6709V18.3122C23.1291 18.1247 26.5026 17.2473 26.5026 16.1932Z" fill="white"/>
</g>
</g>
</g>
</svg>
