<svg width="18" height="20" viewBox="0 0 18 20" fill="none" xmlns="http://www.w3.org/2000/svg">
<g id="Group" opacity="0.5">
<path id="Vector" d="M14.2107 0C12.4729 0 11.0528 1.42009 11.0528 3.15791C11.0528 3.57075 11.1294 3.97164 11.2749 4.33382L5.27153 7.66448C4.71052 7.15638 3.97056 6.84209 3.15791 6.84209C1.42009 6.84209 0 8.26219 0 10C0 11.7378 1.42009 13.1579 3.15791 13.1579C3.97367 13.1579 4.71785 12.8473 5.27956 12.3355L11.283 15.6662C11.135 16.0311 11.0528 16.4256 11.0528 16.8421C11.0528 18.5799 12.4729 20 14.2107 20C15.9485 20 17.3686 18.5799 17.3686 16.8421C17.3686 15.1043 15.9485 13.6842 14.2107 13.6842C13.2646 13.6842 12.4139 14.1057 11.834 14.7698L5.93731 11.4968C6.17888 11.0509 6.31565 10.5404 6.31565 10C6.31565 9.4568 6.18109 8.95054 5.93731 8.50317L11.834 5.23017C12.4139 5.89489 13.264 6.31581 14.2107 6.31581C15.9485 6.31581 17.3686 4.89572 17.3686 3.15791C17.3686 1.42009 15.9485 0 14.2107 0H14.2107ZM14.2107 1.05256C15.3797 1.05256 16.3161 1.98895 16.3161 3.15791C16.3161 4.32687 15.3797 5.26326 14.2107 5.26326C13.0418 5.26326 12.1054 4.32687 12.1054 3.15791C12.1054 1.98895 13.0418 1.05256 14.2107 1.05256ZM3.15788 7.89479C4.32684 7.89479 5.26323 8.83118 5.26323 10.0001C5.26323 11.1691 4.32684 12.1055 3.15788 12.1055C1.98892 12.1055 1.05253 11.1691 1.05253 10.0001C1.05253 8.83118 1.98892 7.89479 3.15788 7.89479ZM14.2107 14.737C15.3797 14.737 16.3161 15.6734 16.3161 16.8424C16.3161 18.0113 15.3797 18.9477 14.2107 18.9477C13.0418 18.9477 12.1054 18.0113 12.1054 16.8424C12.1054 15.6734 13.0418 14.737 14.2107 14.737Z" fill="#3A3A3A"/>
</g>
</svg>
